<?xml version="1.0" encoding="UTF-8" standalone="no"?>
<!-- Created with Inkscape (http://www.inkscape.org/) -->

<svg
   xmlns:dc="http://purl.org/dc/elements/1.1/"
   xmlns:cc="http://creativecommons.org/ns#"
   xmlns:rdf="http://www.w3.org/1999/02/22-rdf-syntax-ns#"
   xmlns:svg="http://www.w3.org/2000/svg"
   xmlns="http://www.w3.org/2000/svg"
   xmlns:sodipodi="http://sodipodi.sourceforge.net/DTD/sodipodi-0.dtd"
   xmlns:inkscape="http://www.inkscape.org/namespaces/inkscape"
   id="svg2"
   version="1.1"
   inkscape:version="0.48.4 r9939"
   width="800"
   height="1370"
   xml:space="preserve"
   sodipodi:docname="LoginAssistNetwork-1.ai"><metadata
     id="metadata8"><rdf:RDF><cc:Work
         rdf:about=""><dc:format>image/svg+xml</dc:format><dc:type
           rdf:resource="http://purl.org/dc/dcmitype/StillImage" /><dc:title></dc:title></cc:Work></rdf:RDF></metadata><defs
     id="defs6"><clipPath
       clipPathUnits="userSpaceOnUse"
       id="clipPath18"><path
         d="m 0,1096 640,0 L 640,0 0,0 0,1096 z"
         id="path20" /></clipPath><clipPath
       clipPathUnits="userSpaceOnUse"
       id="clipPath100"><path
         d="m 0,1096 640,0 L 640,0 0,0 0,1096 z"
         id="path102" /></clipPath><clipPath
       clipPathUnits="userSpaceOnUse"
       id="clipPath116"><path
         d="m 0,1096 640,0 L 640,0 0,0 0,1096 z"
         id="path118" /></clipPath></defs><sodipodi:namedview
     pagecolor="#ffffff"
     bordercolor="#666666"
     borderopacity="1"
     objecttolerance="10"
     gridtolerance="10"
     guidetolerance="10"
     inkscape:pageopacity="0"
     inkscape:pageshadow="2"
     inkscape:window-width="640"
     inkscape:window-height="480"
     id="namedview4"
     showgrid="false"
     inkscape:zoom="0.17226277"
     inkscape:cx="400"
     inkscape:cy="685"
     inkscape:window-x="0"
     inkscape:window-y="0"
     inkscape:window-maximized="0"
     inkscape:current-layer="g10" /><g
     id="g10"
     inkscape:groupmode="layer"
     inkscape:label="LoginAssistNetwork-1"
     transform="matrix(1.25,0,0,-1.25,0,1370)"><path
       d="M 0,0 640,0 640,1096 0,1096 0,0 z"
       style="fill:#5c2728;fill-opacity:1;fill-rule:nonzero;stroke:none"
       id="path12" /><g
       id="g14"><g
         id="g16"
         clip-path="url(#clipPath18)"><g
           id="g22"
           transform="translate(284.2062,719.493)"><path
             d="m 0,0 c -7.642,-5.118 -15.619,-10.202 -23.805,-15.167 l 23.9,-2.966 -0.201,-19.974 27.305,18.345 -5.816,3.911 C 17.757,-13.478 9.545,-7.882 0,0"
             style="fill:#e41f25;fill-opacity:1;fill-rule:nonzero;stroke:none"
             id="path24" /></g><g
           id="g26"
           transform="translate(319.5728,801.796)"><path
             d="m 0,0 c -7.392,0 -13.406,-6.013 -13.406,-13.406 0,-7.392 6.014,-13.405 13.406,-13.405 l 13.406,0 0,13.405 C 13.406,-6.013 7.392,0 0,0"
             style="fill:#e41f25;fill-opacity:1;fill-rule:nonzero;stroke:none"
             id="path28" /></g><g
           id="g30"
           transform="translate(288.293,788.3904)"><path
             d="M 0,0 C 0,17.248 14.032,31.28 31.28,31.28 48.528,31.28 62.56,17.248 62.56,0 l 0,-31.28 -31.28,0 C 14.032,-31.28 0,-17.248 0,0 m 59.216,-62.013 c 20.092,16.325 46.866,43.251 46.866,70.826 0,0.251 -0.008,0.486 -0.011,0.718 0.003,0.148 0.003,0.3 0.003,0.452 0,0.623 -0.026,1.233 -0.068,1.845 l -0.064,1.2 c -0.069,1.059 -0.156,2.065 -0.282,3.063 -0.057,0.411 -0.113,0.787 -0.174,1.162 -3.668,23.471 -23.471,40.423 -47.105,40.423 -9.716,0 -18.942,-2.999 -26.676,-8.231 -7.726,5.232 -16.952,8.231 -26.671,8.231 -23.631,0 -43.434,-16.952 -47.102,-40.423 -0.061,-0.375 -0.121,-0.751 -0.174,-1.162 -0.13,-0.998 -0.217,-2.004 -0.289,-3.063 l -0.061,-1.2 c -0.042,-0.612 -0.068,-1.222 -0.068,-1.845 0,-0.152 0,-0.304 0.008,-0.452 -0.008,-0.232 -0.016,-0.467 -0.016,-0.718 0,-39.709 55.53,-78.086 66.655,-85.379 l 48.195,-32.393 -0.194,19.974 23.896,2.965 c -12.483,7.571 -24.925,15.718 -36.668,24.007"
             style="fill:#e41f25;fill-opacity:1;fill-rule:nonzero;stroke:none"
             id="path32" /></g><g
           id="g34"
           transform="translate(147.8788,592.3943)"><path
             d="m 0,0 c 2.638,-1.737 5.921,-2.703 8.753,-2.703 2.765,0 4.568,0.515 4.568,2.06 0,4.118 -14.351,2.381 -14.351,12.613 0,5.856 4.892,9.717 12.421,9.717 3.667,0 7.013,-0.578 9.78,-1.544 l 0,-8.044 c -2.894,1.158 -6.048,2.124 -9.394,2.124 -2.381,0 -3.348,-0.645 -3.348,-1.803 0,-3.475 14.353,-1.994 14.353,-12.805 0,-7.144 -6.373,-9.782 -13.129,-9.782 -5.278,0 -9.718,1.416 -12.612,3.217 L 0,0 z"
             style="fill:#ffffff;fill-opacity:1;fill-rule:nonzero;stroke:none"
             id="path36" /></g><g
           id="g38"
           transform="translate(176.3438,592.3943)"><path
             d="m 0,0 c 2.638,-1.737 5.921,-2.703 8.751,-2.703 2.767,0 4.57,0.515 4.57,2.06 0,4.118 -14.351,2.381 -14.351,12.613 0,5.856 4.892,9.717 12.421,9.717 3.667,0 7.013,-0.578 9.78,-1.544 l 0,-8.044 c -2.894,1.158 -6.048,2.124 -9.394,2.124 -2.381,0 -3.348,-0.645 -3.348,-1.803 0,-3.475 14.353,-1.994 14.353,-12.805 0,-7.144 -6.373,-9.782 -13.129,-9.782 -5.278,0 -9.718,1.416 -12.612,3.217 L 0,0 z"
             style="fill:#ffffff;fill-opacity:1;fill-rule:nonzero;stroke:none"
             id="path40" /></g><path
           d="m 204.293,613.31 9.718,0 0,-30.439 -9.718,0 0,30.439 z m -0.9,9.202 c 0,3.024 2.508,5.534 5.791,5.534 3.281,0 5.793,-2.381 5.793,-5.534 0,-3.025 -2.512,-5.599 -5.793,-5.599 -3.283,0 -5.791,2.445 -5.791,5.599"
           style="fill:#ffffff;fill-opacity:1;fill-rule:nonzero;stroke:none"
           id="path42" /><g
           id="g44"
           transform="translate(221.215,592.3943)"><path
             d="m 0,0 c 2.638,-1.737 5.921,-2.703 8.753,-2.703 2.765,0 4.568,0.515 4.568,2.06 0,4.118 -14.351,2.381 -14.351,12.613 0,5.856 4.892,9.717 12.421,9.717 3.667,0 7.013,-0.578 9.78,-1.544 l 0,-8.044 c -2.894,1.158 -6.048,2.124 -9.394,2.124 -2.381,0 -3.348,-0.645 -3.348,-1.803 0,-3.475 14.353,-1.994 14.353,-12.805 0,-7.144 -6.373,-9.782 -13.129,-9.782 -5.278,0 -9.718,1.416 -12.612,3.217 L 0,0 z"
             style="fill:#ffffff;fill-opacity:1;fill-rule:nonzero;stroke:none"
             id="path46" /></g><g
           id="g48"
           transform="translate(251.8861,591.1725)"><path
             d="m 0,0 0,14.672 -5.727,0 0,7.465 5.727,0 0,7.208 9.718,2.766 0,-9.974 9.267,0 -2.189,-7.465 -7.078,0 0,-12.098 c 0,-2.896 0.9,-3.862 2.832,-3.862 1.608,0 3.281,0.58 4.44,1.288 l 2.703,-6.564 C 17.312,-8.173 13.064,-8.945 9.975,-8.945 3.862,-8.945 0,-5.535 0,0"
             style="fill:#ffffff;fill-opacity:1;fill-rule:nonzero;stroke:none"
             id="path50" /></g><g
           id="g52"
           transform="translate(276.7809,587.504)"><path
             d="M 0,0 C 0,3.024 2.316,5.277 5.148,5.277 7.98,5.277 10.296,3.024 10.296,0 10.296,-3.024 7.98,-5.277 5.148,-5.277 2.316,-5.277 0,-3.024 0,0"
             style="fill:#ffffff;fill-opacity:1;fill-rule:nonzero;stroke:none"
             id="path54" /></g><g
           id="g56"
           transform="translate(292.0979,613.3097)"><path
             d="m 0,0 8.302,0 0.965,-3.089 c 3.089,2.381 6.499,3.861 10.231,3.861 4.892,0 10.232,-1.931 10.232,-11.326 l 0,-19.885 -9.716,0 0,16.989 c 0,3.154 -0.516,5.856 -4.118,5.856 -1.995,0 -4.378,-0.836 -6.178,-2.252 l 0,-20.593 -9.718,0 L 0,0 z"
             style="fill:#ffffff;fill-opacity:1;fill-rule:nonzero;stroke:none"
             id="path58" /></g><g
           id="g60"
           transform="translate(346.3168,601.5973)"><path
             d="M 0,0 C -0.065,2.639 -1.416,5.277 -4.956,5.277 -8.174,5.277 -9.718,2.703 -9.718,0 L 0,0 z m -9.588,-6.436 c 0.192,-3.732 3.41,-5.47 7.529,-5.47 3.216,0 5.597,0.773 7.85,2.06 l 2.83,-6.564 c -3.602,-2.188 -7.464,-2.96 -11.453,-2.96 -12.099,0 -16.474,7.722 -16.474,15.508 0,9.139 4.954,16.346 14.542,16.346 9.139,0 14.48,-6.306 14.48,-16.667 l 0,-2.253 -19.304,0 z"
             style="fill:#ffffff;fill-opacity:1;fill-rule:nonzero;stroke:none"
             id="path62" /></g><g
           id="g64"
           transform="translate(364.2566,591.1725)"><path
             d="m 0,0 0,14.672 -5.727,0 0,7.465 5.727,0 0,7.208 9.718,2.766 0,-9.974 9.267,0 -2.189,-7.465 -7.078,0 0,-12.098 c 0,-2.896 0.9,-3.862 2.832,-3.862 1.608,0 3.281,0.58 4.44,1.288 l 2.703,-6.564 C 17.312,-8.173 13.064,-8.945 9.975,-8.945 3.862,-8.945 0,-5.535 0,0"
             style="fill:#ffffff;fill-opacity:1;fill-rule:nonzero;stroke:none"
             id="path66" /></g><g
           id="g68"
           transform="translate(385.6674,613.3097)"><path
             d="m 0,0 9.718,0 5.856,-18.148 0.127,0 6.113,18.148 7.016,0 6.242,-18.212 0.13,0 5.791,18.212 9.459,0 -12.034,-30.632 -6.756,0 -6.307,18.147 -0.128,0 -6.499,-18.147 -7.145,0 L 0,0 z"
             style="fill:#ffffff;fill-opacity:1;fill-rule:nonzero;stroke:none"
             id="path70" /></g><g
           id="g72"
           transform="translate(458.8882,598.1868)"><path
             d="m 0,0 c 0,4.697 -1.802,8.237 -6.115,8.237 -4.311,0 -6.113,-3.54 -6.113,-8.237 0,-4.698 1.802,-8.302 6.113,-8.302 C -1.802,-8.302 0,-4.698 0,0 m -22.138,0 c 0,9.267 6.564,15.895 16.023,15.895 C 3.346,15.895 9.91,9.267 9.91,0 c 0,-9.267 -6.564,-15.959 -16.025,-15.959 -9.459,0 -16.023,6.692 -16.023,15.959"
             style="fill:#ffffff;fill-opacity:1;fill-rule:nonzero;stroke:none"
             id="path74" /></g><g
           id="g76"
           transform="translate(473.914,613.3097)"><path
             d="m 0,0 8.237,0 1.03,-3.089 c 2.381,2.123 4.826,3.861 8.237,3.861 1.543,0 3.475,-0.45 5.018,-1.545 l -3.41,-7.979 c -1.738,1.093 -3.346,1.287 -4.119,1.287 -1.8,0 -3.151,-0.45 -5.275,-2.06 l 0,-20.914 -9.718,0 L 0,0 z"
             style="fill:#ffffff;fill-opacity:1;fill-rule:nonzero;stroke:none"
             id="path78" /></g><g
           id="g80"
           transform="translate(499.7542,628.4315)"><path
             d="m 0,0 9.716,0 0,-25.225 0.129,0 8.816,10.103 10.877,0 -11.907,-13.515 12.615,-16.924 -11.069,0 -9.332,13.064 -0.129,0 0,-13.064 -9.716,0 L 0,0 z"
             style="fill:#ffffff;fill-opacity:1;fill-rule:nonzero;stroke:none"
             id="path82" /></g><g
           id="g84"
           transform="translate(125.6399,605.3273)"><path
             d="m 0,0 c -3.696,0 -6.703,-3.007 -6.703,-6.703 0,-3.696 3.007,-6.703 6.703,-6.703 l 6.703,0 0,6.703 C 6.703,-3.007 3.696,0 0,0 m 15.64,-22.343 -15.64,0 c -8.624,0 -15.64,7.016 -15.64,15.64 0,8.624 7.016,15.64 15.64,15.64 8.624,0 15.64,-7.016 15.64,-15.64 l 0,-15.64 z"
             style="fill:#ffffff;fill-opacity:1;fill-rule:nonzero;stroke:none"
             id="path86" /></g></g></g><text
       transform="matrix(1,0,0,-1,263.478,408.8506)"
       id="text88"><tspan
         style="fill:#e41f25;fill-opacity:1;fill-rule:nonzero;stroke:none;font-family:Trebuchet MS;font-variant:normal;font-weight:normal;font-stretch:normal;font-size:36;writing-mode:lr;-inkscape-font-specification:TrebuchetMS"
         x="0 18.216 42.48 66.816 76.8528 99.8208"
         y="0"
         sodipodi:role="line"
         id="tspan90">LOGIN:</tspan></text>
<text
       transform="matrix(0.99815,0,0,-1,115.231,330.9287)"
       id="text92"><tspan
         style="fill:#e41f25;fill-opacity:1;fill-rule:nonzero;stroke:none;font-family:Trebuchet MS;font-variant:normal;font-weight:normal;font-stretch:normal;font-size:24;writing-mode:lr;-inkscape-font-specification:TrebuchetMS"
         x="0 15.312 27.912 47.832"
         y="0"
         sodipodi:role="line"
         id="tspan94">Name</tspan></text>
<g
       id="g96"><g
         id="g98"
         clip-path="url(#clipPath100)"><g
           id="g104"
           transform="translate(110,314.0454)"><path
             d="M 0,0 420,0"
             style="fill:none;stroke:#e41f25;stroke-opacity:1;stroke-width:1;stroke-linecap:butt;stroke-linejoin:miter;stroke-miterlimit:10;stroke-dasharray:none"
             id="path106" /></g></g></g><text
       transform="matrix(0.99815,0,0,-1,115.231,231.9336)"
       id="text108"><tspan
         style="fill:#e41f25;fill-opacity:1;fill-rule:nonzero;stroke:none;font-family:Trebuchet MS;font-variant:normal;font-weight:normal;font-stretch:normal;font-size:24;writing-mode:lr;-inkscape-font-specification:TrebuchetMS"
         x="0 12.2568 24.8568 34.5768 44.2968 62.1528 75.0408 84.3768"
         y="0"
         sodipodi:role="line"
         id="tspan110">Password</tspan></text>
<g
       id="g112"><g
         id="g114"
         clip-path="url(#clipPath116)"><g
           id="g120"
           transform="translate(110,215.0504)"><path
             d="M 0,0 420,0"
             style="fill:none;stroke:#e41f25;stroke-opacity:1;stroke-width:1;stroke-linecap:butt;stroke-linejoin:miter;stroke-miterlimit:10;stroke-dasharray:none"
             id="path122" /></g></g></g></g></svg>